<svg width="81" height="80" viewBox="0 0 81 80" fill="none" xmlns="http://www.w3.org/2000/svg">
<g filter="url(#filter0_d_1_374)">
<rect x="65" y="60" width="48.7877" height="48" rx="16" transform="rotate(-180 65 60)" fill="white"/>
<path d="M43.4694 44.0307L35.9694 36.5307C35.8997 36.461 35.8443 36.3783 35.8066 36.2873C35.7688 36.1962 35.7494 36.0986 35.7494 36.0001C35.7494 35.9015 35.7688 35.8039 35.8066 35.7128C35.8443 35.6218 35.8997 35.5391 35.9694 35.4694L43.4694 27.9694C43.6101 27.8287 43.801 27.7496 44 27.7496C44.199 27.7496 44.3899 27.8287 44.5306 27.9694C44.6714 28.1102 44.7504 28.301 44.7504 28.5001C44.7504 28.6991 44.6714 28.8899 44.5306 29.0307L37.5603 36.0001L44.5306 42.9694C44.6003 43.0391 44.6556 43.1218 44.6933 43.2129C44.731 43.3039 44.7504 43.4015 44.7504 43.5001C44.7504 43.5986 44.731 43.6962 44.6933 43.7872C44.6556 43.8783 44.6003 43.961 44.5306 44.0307C44.461 44.1004 44.3782 44.1556 44.2872 44.1933C44.1961 44.2311 44.0986 44.2505 44 44.2505C43.9015 44.2505 43.8039 44.2311 43.7128 44.1933C43.6218 44.1556 43.5391 44.1004 43.4694 44.0307Z" fill="#888888"/>
</g>
<defs>
<filter id="filter0_d_1_374" x="0.21228" y="0" width="80.7877" height="80" filterUnits="userSpaceOnUse" color-interpolation-filters="sRGB">
<feFlood flood-opacity="0" result="BackgroundImageFix"/>
<feColorMatrix in="SourceAlpha" type="matrix" values="0 0 0 0 0 0 0 0 0 0 0 0 0 0 0 0 0 0 127 0" result="hardAlpha"/>
<feOffset dy="4"/>
<feGaussianBlur stdDeviation="8"/>
<feComposite in2="hardAlpha" operator="out"/>
<feColorMatrix type="matrix" values="0 0 0 0 0 0 0 0 0 0 0 0 0 0 0 0 0 0 0.08 0"/>
<feBlend mode="normal" in2="BackgroundImageFix" result="effect1_dropShadow_1_374"/>
<feBlend mode="normal" in="SourceGraphic" in2="effect1_dropShadow_1_374" result="shape"/>
</filter>
</defs>
</svg>
