<svg width="40" height="40" viewBox="0 0 40 40" fill="none" xmlns="http://www.w3.org/2000/svg">
<path d="M0 0H40V40H0V0Z" fill="#19AA1E"/>
<path fill-rule="evenodd" clip-rule="evenodd" d="M0 0H40V13.125L0 6.875V0Z" fill="#FFB919"/>
<path fill-rule="evenodd" clip-rule="evenodd" d="M0 35.625L40 29.375V40H0V35.625Z" fill="#82D714"/>
<path fill-rule="evenodd" clip-rule="evenodd" d="M0 6.08423L13.9623 8.26581C15.7004 7.16565 17.7682 6.56245 20 6.56245C23.0912 6.56245 25.8677 7.71961 27.8893 9.75166C28.1445 10.0081 28.3852 10.2762 28.6107 10.5546L40 12.3342V13.9156L29.7672 12.3168C30.5273 13.7757 30.9375 15.4011 30.9375 17.0599C30.9375 19.2029 30.4582 21.3396 29.4673 23.4849L29.4372 23.5499L29.0163 24.4516H28.0212C25.9663 24.4516 24.6033 25.0663 23.7122 26.1556C23.0125 27.0109 22.6078 28.1639 22.4717 29.4219L22.4675 29.4613L22.4477 29.6623L22.4392 29.7498L22.423 29.9208C22.3708 30.4824 22.336 30.9588 22.3183 31.3469L40 28.5843V30.1656L0 36.4156V34.8343L17.7015 32.0683L17.6938 31.7133L17.6915 31.6131L17.69 31.5618L17.6872 31.4826C17.6713 31.0521 17.6318 30.5003 17.5687 29.8314L17.5565 29.7046L17.5348 29.4849C17.4078 28.2203 17.0092 27.0526 16.3113 26.1846C15.4295 25.0879 14.0791 24.4643 12.0408 24.4518L11.9788 24.4516H10.9837L10.5629 23.5499C9.55158 21.3828 9.0625 19.2246 9.0625 17.0599C9.0625 14.3377 10.1669 11.7054 12.1107 9.75166C12.1668 9.69526 12.2235 9.63953 12.2807 9.58448L0 7.66565V6.08423Z" fill="white"/>
<path fill-rule="evenodd" clip-rule="evenodd" d="M20 8.125C25.5843 8.125 29.375 12.4233 29.375 17.06C29.375 18.9215 28.9688 20.8585 28.0212 22.8892C22.5262 22.8892 21.1698 26.8245 20.9133 29.3005L20.897 29.4655C20.81 30.3492 20.7598 31.0582 20.746 31.5927L19.2577 31.8253L19.2573 31.7772C19.2517 31.2168 19.1987 30.4308 19.0985 29.4192L19.0942 29.375C18.8572 26.9043 17.5293 22.8892 11.9788 22.8892C11.0311 20.8585 10.625 18.9215 10.625 17.06C10.625 12.4233 14.4156 8.125 20 8.125Z" fill="#0073FA"/>
</svg>
