<svg width="40" height="40" viewBox="0 0 40 40" fill="none" xmlns="http://www.w3.org/2000/svg">
<rect width="40" height="40" rx="7" fill="#0F9AEF"/>
<path fill-rule="evenodd" clip-rule="evenodd" d="M34.1475 13.75C29.8064 13.75 25.7623 15.0091 22.3514 17.1741C20.3317 18.4561 18.5345 20.0548 17.0326 21.9045C15.2023 20.5417 13.0911 19.5358 10.8031 18.9813C9.49195 18.6635 8.12366 18.4909 6.7146 18.4909C6.13594 18.4909 5.56411 18.5193 5 18.575C7.06334 18.7779 9.01778 19.3471 10.8031 20.2102C12.6377 21.0973 14.2908 22.2974 15.6932 23.7429C16.4403 24.5128 17.1153 25.3521 17.7091 26.25C18.1264 25.3812 18.5975 24.5434 19.1211 23.7424C20.7424 21.2613 22.8492 19.1257 25.3109 17.4746C28.3713 15.4218 31.9748 14.1145 35.8619 13.8156C35.2962 13.7722 34.7244 13.75 34.1475 13.75Z" fill="white"/>
</svg>
