<svg width="40" height="40" viewBox="0 0 40 40" fill="none" xmlns="http://www.w3.org/2000/svg">
<g clip-path="url(#clip0_1_407)">
<path d="M27.2 0H12.8C5.73075 0 0 5.73075 0 12.8V27.2C0 34.2692 5.73075 40 12.8 40H27.2C34.2692 40 40 34.2692 40 27.2V12.8C40 5.73075 34.2692 0 27.2 0Z" fill="white"/>
<path d="M20 4.80005C17.5945 4.79942 15.2429 5.51226 13.2426 6.84837C11.2423 8.18449 9.68325 10.0839 8.76263 12.3062C7.84201 14.5285 7.60119 16.974 8.07065 19.3332C8.54011 21.6924 9.69875 23.8594 11.4 25.56C13.6 27.76 18.784 30.944 19.088 34.288C19.136 34.792 19.496 35.2 20 35.2C20.504 35.2 20.864 34.792 20.912 34.288C21.216 30.944 26.4 27.76 28.6 25.56C30.3012 23.8594 31.4599 21.6924 31.9293 19.3332C32.3988 16.974 32.158 14.5285 31.2374 12.3062C30.3167 10.0839 28.7577 8.18449 26.7574 6.84837C24.7571 5.51226 22.4055 4.79942 20 4.80005Z" fill="#FF4433"/>
<path d="M20 21.216C21.1287 21.216 22.2113 20.7676 23.0094 19.9694C23.8076 19.1713 24.256 18.0887 24.256 16.96C24.256 15.8312 23.8076 14.7487 23.0094 13.9505C22.2113 13.1524 21.1287 12.704 20 12.704C18.8712 12.704 17.7887 13.1524 16.9905 13.9505C16.1924 14.7487 15.744 15.8312 15.744 16.96C15.744 18.0887 16.1924 19.1713 16.9905 19.9694C17.7887 20.7676 18.8712 21.216 20 21.216Z" fill="white"/>
<path fill-rule="evenodd" clip-rule="evenodd" d="M27.2 0.8H12.8C9.6174 0.8 6.56516 2.06428 4.31472 4.31472C2.06428 6.56516 0.8 9.6174 0.8 12.8V27.2C0.8 30.3826 2.06428 33.4348 4.31472 35.6853C6.56516 37.9357 9.6174 39.2 12.8 39.2H27.2C30.3826 39.2 33.4348 37.9357 35.6853 35.6853C37.9357 33.4348 39.2 30.3826 39.2 27.2V12.8C39.2 9.6174 37.9357 6.56516 35.6853 4.31472C33.4348 2.06428 30.3826 0.8 27.2 0.8ZM12.8 0C9.40523 0 6.1495 1.34857 3.74903 3.74903C1.34857 6.1495 0 9.40523 0 12.8L0 27.2C0 30.5948 1.34857 33.8505 3.74903 36.251C6.1495 38.6514 9.40523 40 12.8 40H27.2C30.5948 40 33.8505 38.6514 36.251 36.251C38.6514 33.8505 40 30.5948 40 27.2V12.8C40 9.40523 38.6514 6.1495 36.251 3.74903C33.8505 1.34857 30.5948 0 27.2 0L12.8 0Z" fill="black" fill-opacity="0.12"/>
</g>
<defs>
<clipPath id="clip0_1_407">
<rect width="40" height="40" fill="white"/>
</clipPath>
</defs>
</svg>
