<svg width="9" height="18" viewBox="0 0 9 18" fill="none" xmlns="http://www.w3.org/2000/svg">
<path d="M4.49999 18C4.80743 18 5.10227 17.8855 5.31966 17.6818C5.53705 17.4781 5.65918 17.2018 5.65918 16.9137V16.187C7.57765 15.7046 8.99998 14.0774 8.99998 12.1307C9.00094 11.8312 8.96713 11.5326 8.89913 11.24C8.67836 10.2996 8.12234 9.45771 7.32269 8.85309C6.52304 8.24846 5.52747 7.91713 4.49999 7.9137C3.4799 7.9137 2.58152 7.23585 2.36707 6.30597C2.29804 6.00746 2.30119 5.69825 2.37629 5.40102C2.45138 5.10379 2.59652 4.82609 2.80105 4.58827C3.00559 4.35045 3.26433 4.15855 3.55831 4.02664C3.85229 3.89473 4.17405 3.82616 4.49999 3.82595C4.8252 3.82636 5.14621 3.89484 5.43958 4.02637C5.73295 4.1579 5.99126 4.34917 6.19567 4.58622C6.40007 4.82326 6.5454 5.10009 6.62105 5.3965C6.6967 5.6929 6.70075 6.0014 6.63291 6.29946C6.56758 6.58108 6.6243 6.87549 6.79061 7.11792C6.95691 7.36034 7.21917 7.53093 7.51969 7.59215C7.82021 7.65338 8.13437 7.60022 8.39307 7.44437C8.65176 7.28852 8.8338 7.04276 8.89913 6.76113C8.96752 6.46783 8.99998 6.17562 8.99998 5.86928C8.99998 3.92155 7.57765 2.29535 5.65918 1.81195V1.0863C5.65918 0.798196 5.53705 0.521891 5.31966 0.31817C5.10227 0.114449 4.80743 0 4.49999 0C4.19255 0 3.89771 0.114449 3.68032 0.31817C3.46292 0.521891 3.3408 0.798196 3.3408 1.0863V1.81195C1.42349 2.29427 0 3.92155 0 5.86928C0 6.17345 0.0336171 6.4624 0.0996912 6.76005C0.321088 7.70033 0.877432 8.54199 1.67719 9.14654C2.47695 9.75109 3.47248 10.0825 4.49999 10.0863C5.07783 10.0886 5.63132 10.3047 6.03992 10.6876C6.44852 11.0705 6.67915 11.5892 6.68159 12.1307C6.68067 12.6726 6.45049 13.192 6.04153 13.575C5.63257 13.958 5.0782 14.1735 4.49999 14.174C4.17405 14.1738 3.85229 14.1053 3.55831 13.9734C3.26433 13.8415 3.00559 13.6496 2.80105 13.4117C2.59652 13.1739 2.45138 12.8962 2.37629 12.599C2.30119 12.3018 2.29804 11.9925 2.36707 11.694C2.3987 11.5544 2.40067 11.4104 2.37287 11.2701C2.34507 11.1298 2.28804 10.996 2.20504 10.8763C2.12204 10.7567 2.0147 10.6535 1.88916 10.5728C1.76361 10.492 1.62231 10.4352 1.47333 10.4057C1.17251 10.3476 0.859392 10.4031 0.601984 10.5602C0.344576 10.7172 0.163662 10.963 0.0985315 11.2443C0.0336167 11.5376 0 11.8276 0 12.1307C0 14.0774 1.42349 15.7046 3.3408 16.187V16.9137C3.3408 17.2018 3.46292 17.4781 3.68032 17.6818C3.89771 17.8855 4.19255 18 4.49999 18Z" fill="#888888"/>
</svg>
