<svg width="16" height="9" viewBox="0 0 16 9" fill="none" xmlns="http://www.w3.org/2000/svg">
<path d="M6.04489 2.42944C6.33129 2.42944 6.60597 2.53434 6.80851 2.72106L9.16525 4.89332L12.2359 2.06171H11.1936C10.1978 2.0627 9.69773 0.951173 10.403 0.301786C10.6126 0.108563 10.8966 0 11.1936 0H14.8821C15.4988 0 16 0.461144 16 1.03085V4.43217C16 4.70607 15.8823 4.96802 15.6727 5.16124C14.9674 5.81063 13.7632 5.35048 13.7632 4.43217V3.47004L9.92886 7.00682C9.82855 7.09942 9.70943 7.17288 9.57831 7.22301C9.44719 7.27313 9.30665 7.29893 9.16471 7.29893C9.02277 7.29893 8.88222 7.27313 8.7511 7.22301C8.61998 7.17288 8.50086 7.09942 8.40055 7.00682L6.04597 4.83356L1.84446 8.70797C1.74418 8.80051 1.62511 8.87393 1.49407 8.92404C1.36302 8.97414 1.22255 8.99995 1.08068 9C0.938815 9.00005 0.798327 8.97433 0.66724 8.9243C0.536153 8.87428 0.417033 8.80094 0.316682 8.70847C0.216332 8.616 0.136715 8.5062 0.082379 8.38536C0.0280425 8.26451 5.02149e-05 8.13498 0 8.00416C-5.00799e-05 7.87334 0.0278425 7.74378 0.0820863 7.6229C0.13633 7.50202 0.215863 7.39217 0.316143 7.29964L5.28128 2.72106C5.48382 2.53434 5.75849 2.42944 6.04489 2.42944Z" fill="#888888"/>
</svg>
