<svg width="34" height="34" viewBox="0 0 34 34" fill="none" xmlns="http://www.w3.org/2000/svg">
<path d="M17 30.75C14.2805 30.75 11.6221 29.9436 9.36091 28.4327C7.09973 26.9218 5.33736 24.7744 4.29666 22.2619C3.25595 19.7494 2.98365 16.9848 3.5142 14.3175C4.04475 11.6503 5.35431 9.20026 7.27728 7.27729C9.20025 5.35432 11.6503 4.04476 14.3175 3.51421C16.9847 2.98366 19.7494 3.25596 22.2619 4.29666C24.7744 5.33737 26.9218 7.09974 28.4327 9.36092C29.9436 11.6221 30.75 14.2805 30.75 17C30.75 17.3315 30.8817 17.6495 31.1161 17.8839C31.3505 18.1183 31.6685 18.25 32 18.25C32.3315 18.25 32.6495 18.1183 32.8839 17.8839C33.1183 17.6495 33.25 17.3315 33.25 17C33.25 13.7861 32.2969 10.6443 30.5114 7.97199C28.7258 5.29969 26.1879 3.21689 23.2186 1.98696C20.2493 0.757041 16.982 0.435237 13.8298 1.06225C10.6776 1.68926 7.78212 3.23692 5.50951 5.50952C3.23691 7.78213 1.68925 10.6776 1.06224 13.8298C0.435229 16.982 0.757033 20.2493 1.98696 23.2186C3.21688 26.1879 5.29968 28.7258 7.97198 30.5114C10.6443 32.297 13.7861 33.25 17 33.25C17.3315 33.25 17.6495 33.1183 17.8839 32.8839C18.1183 32.6495 18.25 32.3315 18.25 32C18.25 31.6685 18.1183 31.3505 17.8839 31.1161C17.6495 30.8817 17.3315 30.75 17 30.75Z" fill="#888888"/>
</svg>
