<svg width="34" height="34" viewBox="0 0 34 34" fill="none" xmlns="http://www.w3.org/2000/svg">
<path d="M18.345 8.25001V14.9766L24.0357 12.1313C24.3322 11.9829 24.6755 11.9584 24.99 12.0632C25.3046 12.1679 25.5647 12.3933 25.713 12.6899C25.8614 12.9864 25.8859 13.3296 25.7811 13.6442C25.6763 13.9588 25.4509 14.2188 25.1544 14.3672L17.6544 18.1172C17.4639 18.2125 17.2522 18.2576 17.0393 18.2481C16.8265 18.2386 16.6196 18.1749 16.4383 18.0629C16.2571 17.951 16.1074 17.7946 16.0036 17.6086C15.8997 17.4225 15.8452 17.2131 15.845 17V8.25001C15.845 7.91849 15.9767 7.60054 16.2112 7.36612C16.4456 7.1317 16.7635 7.00001 17.095 7.00001C17.4266 7.00001 17.7445 7.1317 17.9789 7.36612C18.2133 7.60054 18.345 7.91849 18.345 8.25001ZM17.095 30.75C14.3755 30.75 11.7171 29.9436 9.45595 28.4327C7.19477 26.9218 5.4324 24.7744 4.3917 22.2619C3.35099 19.7494 3.07869 16.9848 3.60924 14.3175C4.13979 11.6503 5.44935 9.20026 7.37232 7.27729C9.29529 5.35432 11.7453 4.04476 14.4125 3.51421C17.0798 2.98366 19.8445 3.25596 22.3569 4.29666C24.8694 5.33737 27.0169 7.09974 28.5277 9.36092C30.0386 11.6221 30.845 14.2805 30.845 17C30.845 17.3315 30.9767 17.6495 31.2112 17.8839C31.4456 18.1183 31.7635 18.25 32.095 18.25C32.4266 18.25 32.7445 18.1183 32.9789 17.8839C33.2133 17.6495 33.345 17.3315 33.345 17C33.345 13.7861 32.392 10.6443 30.6064 7.97199C28.8208 5.29969 26.2829 3.21689 23.3136 1.98696C20.3443 0.757041 17.077 0.435237 13.9248 1.06225C10.7726 1.68926 7.87716 3.23692 5.60455 5.50952C3.33195 7.78213 1.78429 10.6776 1.15728 13.8298C0.530268 16.982 0.852073 20.2493 2.082 23.2186C3.31192 26.1879 5.39472 28.7258 8.06702 30.5114C10.7393 32.297 13.8811 33.25 17.095 33.25C17.4266 33.25 17.7445 33.1183 17.9789 32.8839C18.2133 32.6495 18.345 32.3315 18.345 32C18.345 31.6685 18.2133 31.3505 17.9789 31.1161C17.7445 30.8817 17.4266 30.75 17.095 30.75ZM33.3028 31.6781C33.3487 31.8379 33.3621 32.0052 33.3425 32.1702C33.3229 32.3352 33.2706 32.4947 33.1886 32.6393C33.1066 32.7838 32.9966 32.9106 32.8651 33.0121C32.7335 33.1137 32.583 33.188 32.4224 33.2307C32.2618 33.2734 32.0943 33.2836 31.9297 33.2608C31.7651 33.238 31.6066 33.1826 31.4637 33.0978C31.3207 33.0131 31.1961 32.9006 31.0971 32.7671C30.9982 32.6336 30.9268 32.4817 30.8872 32.3203C30.445 30.6594 28.8857 29.5 27.095 29.5C25.3044 29.5 23.745 30.6594 23.3029 32.3203C23.2322 32.5868 23.0755 32.8224 22.857 32.9905C22.6386 33.1587 22.3707 33.2499 22.095 33.25C21.9864 33.2497 21.8782 33.2356 21.7732 33.2078C21.4528 33.1224 21.1795 32.9133 21.0134 32.6265C20.8473 32.3396 20.8019 31.9985 20.8872 31.6781C21.2927 30.1726 22.2462 28.873 23.5607 28.0344C22.8609 27.3353 22.3841 26.4444 22.1907 25.4744C21.9974 24.5043 22.0961 23.4987 22.4743 22.5848C22.8526 21.6708 23.4935 20.8896 24.3158 20.3399C25.1382 19.7903 26.1051 19.4969 27.0943 19.4969C28.0834 19.4969 29.0503 19.7903 29.8727 20.3399C30.695 20.8896 31.3359 21.6708 31.7142 22.5848C32.0925 23.4987 32.1912 24.5043 31.9978 25.4744C31.8044 26.4444 31.3277 27.3353 30.6279 28.0344C31.9429 28.8727 32.897 30.1723 33.3028 31.6781ZM24.595 24.5C24.595 24.9945 24.7417 25.4778 25.0164 25.8889C25.2911 26.3001 25.6815 26.6205 26.1383 26.8097C26.5951 26.9989 27.0978 27.0484 27.5828 26.952C28.0677 26.8555 28.5132 26.6174 28.8628 26.2678C29.2124 25.9181 29.4505 25.4727 29.547 24.9877C29.6435 24.5028 29.594 24.0001 29.4047 23.5433C29.2155 23.0865 28.8951 22.696 28.484 22.4213C28.0728 22.1466 27.5895 22 27.095 22C26.432 22 25.7961 22.2634 25.3273 22.7322C24.8584 23.2011 24.595 23.837 24.595 24.5Z" fill="#888888"/>
</svg>
