<svg width="40" height="40" viewBox="0 0 40 40" fill="none" xmlns="http://www.w3.org/2000/svg">
<path fill-rule="evenodd" clip-rule="evenodd" d="M27.2 0.8H12.8C9.6174 0.8 6.56516 2.06428 4.31472 4.31472C2.06428 6.56516 0.8 9.6174 0.8 12.8V27.2C0.8 30.3826 2.06428 33.4348 4.31472 35.6853C6.56516 37.9357 9.6174 39.2 12.8 39.2H27.2C30.3826 39.2 33.4348 37.9357 35.6853 35.6853C37.9357 33.4348 39.2 30.3826 39.2 27.2V12.8C39.2 9.6174 37.9357 6.56516 35.6853 4.31472C33.4348 2.06428 30.3826 0.8 27.2 0.8ZM12.8 0C9.40523 0 6.1495 1.34857 3.74903 3.74903C1.34857 6.1495 0 9.40523 0 12.8L0 27.2C0 30.5948 1.34857 33.8505 3.74903 36.251C6.1495 38.6514 9.40523 40 12.8 40H27.2C30.5948 40 33.8505 38.6514 36.251 36.251C38.6514 33.8505 40 30.5948 40 27.2V12.8C40 9.40523 38.6514 6.1495 36.251 3.74903C33.8505 1.34857 30.5948 0 27.2 0L12.8 0Z" fill="black" fill-opacity="0.12"/>
</svg>
